<svg width="20" height="21" viewBox="0 0 20 21" fill="none" xmlns="http://www.w3.org/2000/svg">
<g id="Type=Mobile, Outline=False">
<path id="Subtract" fill-rule="evenodd" clip-rule="evenodd" d="M4 4.38689C4 3.06864 5.07451 2 6.4 2H13.6C14.9255 2 16 3.06864 16 4.38689V17.5147C16 18.833 14.9255 19.9016 13.6 19.9016H6.4C5.07451 19.9016 4 18.833 4 17.5147V4.38689ZM5.37705 4.95082H14.8197V14H5.37705V4.95082ZM10.0984 18.5246C10.9675 18.5246 11.6721 17.82 11.6721 16.9508C11.6721 16.0817 10.9675 15.377 10.0984 15.377C9.22919 15.377 8.52459 16.0817 8.52459 16.9508C8.52459 17.82 9.22919 18.5246 10.0984 18.5246Z" fill="#3BA55C"/>
</g>
</svg>
