<svg width="11" height="15" viewBox="0 0 11 15" fill="none" xmlns="http://www.w3.org/2000/svg">
<g id="Status">
<g id="Online Mobile">
<path fill-rule="evenodd" clip-rule="evenodd" d="M0.5 2C0.5 0.895416 1.39543 0 2.5 0H8.5C9.60457 0 10.5 0.895416 10.5 2V13C10.5 14.1046 9.60457 15 8.5 15H2.5C1.39543 15 0.5 14.1046 0.5 13V2ZM2 3C2 2.44772 2.44772 2 3 2H8C8.55229 2 9 2.44772 9 3V9C9 9.55228 8.55229 10 8 10H3C2.44772 10 2 9.55228 2 9V3ZM5 11.5C4.17157 11.5 3.5 11.6716 3.5 12.5C3.5 13.3284 4.17157 13.5 5 13.5H6C6.82843 13.5 7.5 13.3284 7.5 12.5C7.5 11.6716 6.82843 11.5 6 11.5H5Z" fill="#3BA55D"/>
</g>
</g>
</svg>
