<svg width="14" height="14" viewBox="0 0 14 14" fill="none" xmlns="http://www.w3.org/2000/svg">
<g id="Type=Mute, Disabled=True">
<path id="Union" fill-rule="evenodd" clip-rule="evenodd" d="M5.00722 6.3595L5.00722 6.3595C5.01072 6.37875 5.01422 6.398 5.01422 6.419L9.20022 2.226V2.1C9.20022 0.938 8.26222 0 7.10022 0C5.93822 0 5.00022 0.938 5.00022 2.1V6.3C5.00022 6.321 5.00372 6.34025 5.00722 6.3595L5.00722 6.3595ZM3.3902 6.29999H2.2002C2.2002 7.13299 2.4382 7.90999 2.8302 8.59599L3.6912 7.73499C3.5022 7.30099 3.3902 6.81799 3.3902 6.29999ZM6.37429 10.3972L6.90664 9.86488C6.9709 9.86824 7.03537 9.86999 7.10005 9.86999C9.03205 9.86999 10.8101 8.39999 10.8101 6.29999H12.0001C12.0001 8.68699 10.0961 10.661 7.80005 11.004V14H6.40005V11.004C6.22295 10.9787 6.04851 10.9431 5.87736 10.8982L6.37429 10.3972Z" fill="#B9BBBE"/>
<path id="Vector" d="M13.3998 1.58895L12.5108 0.699951L0.799805 12.411L1.6888 13.3L4.6218 10.374L5.4828 9.50595L6.64481 8.34395L9.19281 5.79595L13.3998 1.58895Z" fill="#ED4245"/>
</g>
</svg>
