<svg width="11" height="12" viewBox="0 0 11 12" fill="none" xmlns="http://www.w3.org/2000/svg">
<path fill-rule="evenodd" clip-rule="evenodd" d="M0.161091 0.204709C0.37588 -0.00557352 0.72412 -0.00557352 0.938909 0.204709L5.5 4.67011L10.0611 0.204709C10.2759 -0.00557352 10.6241 -0.00557352 10.8389 0.204709C11.0537 0.414991 11.0537 0.755926 10.8389 0.966209L6.15996 5.547L10.8389 10.1278C11.0537 10.3381 11.0537 10.679 10.8389 10.8893C10.6241 11.0996 10.2759 11.0996 10.0611 10.8893L5.5 6.42388L0.938909 10.8893C0.72412 11.0996 0.37588 11.0996 0.161091 10.8893C-0.0536971 10.679 -0.0536971 10.3381 0.161091 10.1278L4.84004 5.547L0.161091 0.966209C-0.0536971 0.755926 -0.0536971 0.414991 0.161091 0.204709Z" fill="#72767D"/>
</svg>
